<svg width="18" height="18" viewBox="0 0 18 18" fill="none" xmlns="http://www.w3.org/2000/svg">
<path d="M2.67176 0.416626C1.56184 0.416626 0.666748 1.31172 0.666748 2.42164C0.666748 3.53156 1.56184 4.42665 2.67176 4.42665C3.78168 4.42665 4.67677 3.53156 4.67677 2.42164C4.67677 1.31172 3.78168 0.416626 2.67176 0.416626Z" fill="black"/>
<path d="M4.38866 5.9303H0.933594V17.0474H4.38866V5.9303Z" fill="black"/>
<path d="M13.1791 5.66174C11.4963 5.66174 10.3685 6.57474 9.92098 7.45193H9.86727V5.93027H6.55542V17.0474H10.0105V11.5515C10.0105 10.1014 10.279 8.70507 12.0871 8.70507C13.8594 8.70507 13.8773 10.3699 13.8773 11.6589V17.0474H17.3324V10.9607C17.3324 7.95319 16.6879 5.66174 13.1791 5.66174Z" fill="black"/>
</svg>
