<svg width="18" height="18" viewBox="0 0 18 18" fill="none" xmlns="http://www.w3.org/2000/svg">
<path d="M12.3697 0.666626H5.63348C2.893 0.666626 0.666748 2.89288 0.666748 5.63335V12.3696C0.666748 15.107 2.893 17.3333 5.63348 17.3333H12.3697C15.1072 17.3333 17.3364 15.107 17.3364 12.3666V5.63335C17.3334 2.89288 15.1072 0.666626 12.3697 0.666626ZM15.6577 12.3696C15.6577 14.1845 14.1846 15.6576 12.3697 15.6576H5.63348C3.81859 15.6576 2.34551 14.1845 2.34551 12.3696V5.63335C2.34551 3.81847 3.81859 2.34539 5.63348 2.34539H12.3697C14.1846 2.34539 15.6577 3.81847 15.6577 5.63335V12.3696Z" fill="black"/>
<path d="M9.00004 4.68958C6.62255 4.68958 4.6897 6.62242 4.6897 8.99992C4.6897 11.3774 6.62255 13.3103 9.00004 13.3103C11.3775 13.3103 13.3104 11.3774 13.3104 8.99992C13.3104 6.62242 11.3775 4.68958 9.00004 4.68958ZM9.00004 11.6345C7.54511 11.6345 6.36544 10.4549 6.36544 8.99992C6.36544 7.54499 7.54511 6.36532 9.00004 6.36532C10.455 6.36532 11.6346 7.54499 11.6346 8.99992C11.6346 10.4549 10.455 11.6345 9.00004 11.6345Z" fill="black"/>
<path d="M13.3195 5.75432C13.8892 5.75432 14.351 5.29252 14.351 4.72286C14.351 4.15321 13.8892 3.69141 13.3195 3.69141C12.7499 3.69141 12.2881 4.15321 12.2881 4.72286C12.2881 5.29252 12.7499 5.75432 13.3195 5.75432Z" fill="black"/>
</svg>
